<svg id="Capa_1" data-name="Capa 1" xmlns="http://www.w3.org/2000/svg" viewBox="0 0 98.28 98.28"><defs><style>.cls-1{fill:#fff;}</style></defs><path class="cls-1" d="M50.22,99.31A49.14,49.14,0,1,1,99.36,50.17,49.2,49.2,0,0,1,50.22,99.31Zm0-96.78A47.64,47.64,0,1,0,97.86,50.17,47.69,47.69,0,0,0,50.22,2.53Z" transform="translate(-1.08 -1.03)"/><path class="cls-1" d="M42.85,79.42H54.63V49.92h8.22L63.72,40H54.63V34.42c0-2.33.47-3.25,2.72-3.25h6.37V20.92H55.57c-8.77,0-12.72,3.86-12.72,11.25V40H36.72V50h6.13Z" transform="translate(-1.08 -1.03)"/></svg>