<svg id="Capa_1" data-name="Capa 1" xmlns="http://www.w3.org/2000/svg" viewBox="0 0 99.06 99.06"><defs><style>.cls-1{fill:#fff;}</style></defs><path class="cls-1" d="M50.17,99.75A49.53,49.53,0,1,1,99.69,50.22,49.59,49.59,0,0,1,50.17,99.75Zm0-97.56a48,48,0,1,0,48,48A48.08,48.08,0,0,0,50.17,2.19Z" transform="translate(-0.64 -0.69)"/><path class="cls-1" d="M50.17,28.3c7.14,0,8,0,10.8.15a15,15,0,0,1,5,.92A8.83,8.83,0,0,1,71,34.45a15,15,0,0,1,.92,5c.13,2.82.15,3.66.15,10.8s0,8-.15,10.81A15.06,15.06,0,0,1,71,66a8.42,8.42,0,0,1-2,3.07,8.21,8.21,0,0,1-3.08,2A14.73,14.73,0,0,1,61,72c-2.82.13-3.66.16-10.8.16s-8,0-10.81-.16a14.79,14.79,0,0,1-5-.92A8.87,8.87,0,0,1,29.32,66a14.79,14.79,0,0,1-.92-5c-.13-2.82-.16-3.67-.16-10.81s0-8,.16-10.8a14.73,14.73,0,0,1,.92-5,8.21,8.21,0,0,1,2-3.08,8.34,8.34,0,0,1,3.07-2,15.06,15.06,0,0,1,5-.92c2.82-.13,3.67-.15,10.81-.15m0-4.82c-7.27,0-8.18,0-11,.16a19.63,19.63,0,0,0-6.49,1.24,13.69,13.69,0,0,0-7.82,7.82,19.42,19.42,0,0,0-1.25,6.5c-.13,2.85-.16,3.76-.16,11s0,8.18.16,11a19.35,19.35,0,0,0,1.25,6.49,13.61,13.61,0,0,0,7.82,7.82,19.61,19.61,0,0,0,6.49,1.25c2.85.13,3.76.16,11,.16s8.17,0,11-.16a19.73,19.73,0,0,0,6.5-1.25,13,13,0,0,0,4.73-3.08,13.2,13.2,0,0,0,3.09-4.74,19.63,19.63,0,0,0,1.24-6.49c.13-2.85.16-3.76.16-11s0-8.17-.16-11a19.7,19.7,0,0,0-1.24-6.5,13.76,13.76,0,0,0-7.82-7.82,19.75,19.75,0,0,0-6.5-1.24c-2.85-.13-3.76-.16-11-.16" transform="translate(-0.64 -0.69)"/><path class="cls-1" d="M50.17,36.49A13.74,13.74,0,1,0,63.9,50.22,13.74,13.74,0,0,0,50.17,36.49m0,22.65a8.92,8.92,0,1,1,8.91-8.92,8.92,8.92,0,0,1-8.91,8.92" transform="translate(-0.64 -0.69)"/><path class="cls-1" d="M67.65,36a3.21,3.21,0,1,1-3.21-3.21A3.21,3.21,0,0,1,67.65,36" transform="translate(-0.64 -0.69)"/></svg>