<svg id="Capa_1" data-name="Capa 1" xmlns="http://www.w3.org/2000/svg" viewBox="0 0 96.5 96.5"><defs><style>.cls-1{fill:#fff;}</style></defs><path class="cls-1" d="M49.56,99.08A48.25,48.25,0,1,1,97.81,50.83,48.3,48.3,0,0,1,49.56,99.08Zm0-95A46.75,46.75,0,1,0,96.31,50.83,46.81,46.81,0,0,0,49.56,4.08Z" transform="translate(-1.31 -2.58)"/><rect class="cls-1" x="26.71" y="37.66" width="9.83" height="31.76"/><path class="cls-1" d="M32.88,36.09a5.86,5.86,0,1,0-5.81-5.87A5.84,5.84,0,0,0,32.88,36.09Z" transform="translate(-1.31 -2.58)"/><path class="cls-1" d="M53.56,55.33c0-4.46,2.06-7.12,6-7.12,3.62,0,5.35,2.55,5.35,7.12V72h9.79V51.9c0-8.51-4.82-12.62-11.56-12.62a11.08,11.08,0,0,0-9.57,5.24V40.24H44.13V72h9.43Z" transform="translate(-1.31 -2.58)"/></svg>