<svg id="Capa_1" data-name="Capa 1" xmlns="http://www.w3.org/2000/svg" viewBox="0 0 126.28 153.51"><defs><style>.cls-1,.cls-2{fill:none;stroke:#222651;}.cls-1{stroke-linecap:round;stroke-linejoin:round;stroke-width:1.3px;}.cls-2{stroke-miterlimit:10;stroke-width:0.16px;}</style></defs><path class="cls-1" d="M133.79,76.05V53.89h1.79a2.71,2.71,0,0,1,2.7,2.68V61.4a29.82,29.82,0,0,1,9.79,4.17l3.48-3.5a2.72,2.72,0,0,1,3.8,0l5.27,5.27a2.72,2.72,0,0,1,0,3.8L157,74.79a29.4,29.4,0,0,1,3.76,9.63h5.38a2.72,2.72,0,0,1,2.72,2.7v7.42a2.72,2.72,0,0,1-2.72,2.71h-5.71a29.31,29.31,0,0,1-4,9.07l4.22,4.2a2.72,2.72,0,0,1,0,3.8l-5.27,5.27a2.7,2.7,0,0,1-3.8,0l-4.37-4.37a29.19,29.19,0,0,1-8.9,3.59v6.28a2.71,2.71,0,0,1-2.7,2.68h-1.79V105.61a14.91,14.91,0,0,0,0-29.56Z" transform="translate(-43.18 -15.03)"/><path class="cls-1" d="M133.79,105.61V76.05a14.91,14.91,0,0,1,0,29.56Z" transform="translate(-43.18 -15.03)"/><path class="cls-1" d="M131.86,75.92a12.35,12.35,0,0,1,1.93.13v29.56a12.35,12.35,0,0,1-1.93.14,14.92,14.92,0,0,1,0-29.83Z" transform="translate(-43.18 -15.03)"/><path class="cls-1" d="M128.14,53.89h5.65V76.05a12.35,12.35,0,0,0-1.93-.13,14.92,14.92,0,0,0,0,29.83,12.35,12.35,0,0,0,1.93-.14v22.16h-5.65a2.69,2.69,0,0,1-2.68-2.68v-6.28a29,29,0,0,1-8.91-3.59l-4.38,4.37a2.7,2.7,0,0,1-3.8,0l-5.27-5.27a2.72,2.72,0,0,1,0-3.8l4.22-4.2a28.85,28.85,0,0,1-4-9.07H97.6a2.71,2.71,0,0,1-2.68-2.71V87.12a2.7,2.7,0,0,1,2.68-2.7H103a29.64,29.64,0,0,1,3.77-9.63l-3.67-3.65a2.72,2.72,0,0,1,0-3.8l5.27-5.27a2.72,2.72,0,0,1,3.8,0l3.5,3.5a29.28,29.28,0,0,1,9.79-4.17V56.57A2.69,2.69,0,0,1,128.14,53.89Z" transform="translate(-43.18 -15.03)"/><path class="cls-2" d="M133.79,157.52a10.19,10.19,0,0,1-10.39,10.37H87.78v-8.71a3.47,3.47,0,0,0,0-6.93l0-5.37,46-.14Z" transform="translate(-43.18 -15.03)"/><path class="cls-1" d="M87.78,152.25a3.47,3.47,0,1,1-3.48,3.48A3.49,3.49,0,0,1,87.78,152.25Z" transform="translate(-43.18 -15.03)"/><path class="cls-1" d="M85,64.11a2.7,2.7,0,0,1,1.5-.44,2.59,2.59,0,0,1,2.09,1,4.45,4.45,0,0,1,.76,2.75,4.34,4.34,0,0,1-.76,2.73,2.54,2.54,0,0,1-2.09,1,2.51,2.51,0,0,1-1.5-.45,2.66,2.66,0,0,1-1-1.3,5.15,5.15,0,0,1-.33-2,5.21,5.21,0,0,1,.35-2A2.75,2.75,0,0,1,85,64.11Z" transform="translate(-43.18 -15.03)"/><path class="cls-2" d="M86.5,63.67a2.7,2.7,0,0,0-1.5.44,2.75,2.75,0,0,0-1,1.3,5.21,5.21,0,0,0-.35,2,5.15,5.15,0,0,0,.33,2,2.66,2.66,0,0,0,1,1.3,2.51,2.51,0,0,0,1.5.45,2.54,2.54,0,0,0,2.09-1,4.34,4.34,0,0,0,.76-2.73,4.45,4.45,0,0,0-.76-2.75A2.59,2.59,0,0,0,86.5,63.67Zm-4.18,8a5.67,5.67,0,0,1-1.17-1.85,6.89,6.89,0,0,1-.38-2.37,6.77,6.77,0,0,1,.4-2.39,5.22,5.22,0,0,1,1.15-1.87A5.53,5.53,0,0,1,84.13,62a7.05,7.05,0,0,1,4.74,0,5.37,5.37,0,0,1,1.83,1.21A5.49,5.49,0,0,1,91.85,65a6.66,6.66,0,0,1,.4,2.37,6.93,6.93,0,0,1-.4,2.39,5.64,5.64,0,0,1-1.17,1.87,5.07,5.07,0,0,1-1.81,1.18,6.9,6.9,0,0,1-4.74,0A5.22,5.22,0,0,1,82.32,71.62Z" transform="translate(-43.18 -15.03)"/><path class="cls-1" d="M71.85,64.27a2.29,2.29,0,0,1,1.76-.75,2.39,2.39,0,0,1,1.83.73,3.62,3.62,0,0,1,.79,2.21H71A3.73,3.73,0,0,1,71.85,64.27Z" transform="translate(-43.18 -15.03)"/><path class="cls-2" d="M73.61,63.52a2.29,2.29,0,0,0-1.76.75A3.73,3.73,0,0,0,71,66.46h5.23a3.62,3.62,0,0,0-.79-2.21A2.39,2.39,0,0,0,73.61,63.52Zm-4,8.16a5.89,5.89,0,0,1-1.55-4.3A7.5,7.5,0,0,1,68.43,65a5.22,5.22,0,0,1,1.11-1.87,4.87,4.87,0,0,1,1.8-1.2,6.28,6.28,0,0,1,2.37-.42,5.48,5.48,0,0,1,2.9.72,4.64,4.64,0,0,1,1.81,1.84A4.91,4.91,0,0,1,79,66.37c0,.74-.22,1.2-.63,1.41a3.68,3.68,0,0,1-1.75.33H71a4,4,0,0,0,.39,1.73,2.93,2.93,0,0,0,1,1.13,2.71,2.71,0,0,0,1.41.38,3.05,3.05,0,0,0,.94-.13,3.23,3.23,0,0,0,.84-.36c.27-.18.49-.37.74-.56s.5-.46.86-.8a1,1,0,0,1,.63-.21,1,1,0,0,1,.73.27.79.79,0,0,1,.26.66,1.77,1.77,0,0,1-.3.92,3.29,3.29,0,0,1-.92,1,4.79,4.79,0,0,1-1.55.79,6.2,6.2,0,0,1-2.15.32A5.76,5.76,0,0,1,69.6,71.68Z" transform="translate(-43.18 -15.03)"/><path class="cls-2" d="M56.27,70.17a1.13,1.13,0,0,1,.34-.82,1.11,1.11,0,0,1,.84-.32,1,1,0,0,1,.71.2,2,2,0,0,1,.46.63A3.15,3.15,0,0,0,59.69,71a3.24,3.24,0,0,0,1.68.38A2.54,2.54,0,0,0,62.8,71a1.07,1.07,0,0,0,.55-.88,1.15,1.15,0,0,0-.57-1.1,6.49,6.49,0,0,0-1.91-.67,14.78,14.78,0,0,1-2.43-.79A3.75,3.75,0,0,1,57,66.5a2.35,2.35,0,0,1-.56-1.62,2.85,2.85,0,0,1,.52-1.65A3.67,3.67,0,0,1,58.44,62a6,6,0,0,1,2.43-.45,8.42,8.42,0,0,1,2,.22,4.65,4.65,0,0,1,1.47.64,3.47,3.47,0,0,1,.92.85,1.82,1.82,0,0,1,.3.94,1.08,1.08,0,0,1-.32.82,1.37,1.37,0,0,1-1,.31,1.17,1.17,0,0,1-.75-.25,5,5,0,0,1-.7-.76,2.29,2.29,0,0,0-.79-.67,2.32,2.32,0,0,0-1.2-.27,2.26,2.26,0,0,0-1.3.35.94.94,0,0,0-.51.84.89.89,0,0,0,.38.72,3,3,0,0,0,1,.48c.42.13,1,.28,1.76.48a8.83,8.83,0,0,1,2.21.78,3.71,3.71,0,0,1,1.28,1.07,2.36,2.36,0,0,1,.44,1.41,3.51,3.51,0,0,1-.59,2,3.36,3.36,0,0,1-1.72,1.31,7.82,7.82,0,0,1-2.75.43,6.57,6.57,0,0,1-2.67-.48,3.62,3.62,0,0,1-1.62-1.18A2.33,2.33,0,0,1,56.27,70.17Z" transform="translate(-43.18 -15.03)"/><path class="cls-1" d="M81.15,69.77a5.67,5.67,0,0,0,1.17,1.85,5.22,5.22,0,0,0,1.81,1.22,6.9,6.9,0,0,0,4.74,0,5.07,5.07,0,0,0,1.81-1.18,5.64,5.64,0,0,0,1.17-1.87,6.93,6.93,0,0,0,.4-2.39,6.66,6.66,0,0,0-.4-2.37,5.49,5.49,0,0,0-1.15-1.87A5.37,5.37,0,0,0,88.87,62a7.05,7.05,0,0,0-4.74,0,5.53,5.53,0,0,0-1.81,1.19A5.22,5.22,0,0,0,81.17,65a6.77,6.77,0,0,0-.4,2.39A6.89,6.89,0,0,0,81.15,69.77ZM43.83,35h90V53.89h-5.65a2.69,2.69,0,0,0-2.68,2.68V61.4a29.28,29.28,0,0,0-9.79,4.17l-3.5-3.5a2.72,2.72,0,0,0-3.8,0l-5.27,5.27a2.72,2.72,0,0,0,0,3.8l3.67,3.65A29.64,29.64,0,0,0,103,84.42H97.6a2.7,2.7,0,0,0-2.68,2.7v7.42a2.71,2.71,0,0,0,2.68,2.71h5.73a28.85,28.85,0,0,0,4,9.07l-4.22,4.2a2.72,2.72,0,0,0,0,3.8l5.27,5.27a2.7,2.7,0,0,0,3.8,0l4.38-4.37a29,29,0,0,0,8.91,3.59v6.28a2.69,2.69,0,0,0,2.68,2.68h5.65v19l-46,.14L43.83,147V35ZM66.16,69.5a2.36,2.36,0,0,0-.44-1.41A3.71,3.71,0,0,0,64.44,67a8.83,8.83,0,0,0-2.21-.78c-.75-.2-1.34-.35-1.76-.48a3,3,0,0,1-1-.48.89.89,0,0,1-.38-.72.94.94,0,0,1,.51-.84,2.26,2.26,0,0,1,1.3-.35,2.32,2.32,0,0,1,1.2.27,2.29,2.29,0,0,1,.79.67,5,5,0,0,0,.7.76,1.17,1.17,0,0,0,.75.25,1.37,1.37,0,0,0,1-.31,1.08,1.08,0,0,0,.32-.82,1.82,1.82,0,0,0-.3-.94,3.47,3.47,0,0,0-.92-.85,4.65,4.65,0,0,0-1.47-.64,8.42,8.42,0,0,0-2-.22,6,6,0,0,0-2.43.45,3.67,3.67,0,0,0-1.52,1.24,2.85,2.85,0,0,0-.52,1.65A2.35,2.35,0,0,0,57,66.5a3.75,3.75,0,0,0,1.48,1.07,14.78,14.78,0,0,0,2.43.79,6.49,6.49,0,0,1,1.91.67,1.15,1.15,0,0,1,.57,1.1,1.07,1.07,0,0,1-.55.88,2.54,2.54,0,0,1-1.43.38A3.24,3.24,0,0,1,59.69,71a3.15,3.15,0,0,1-1.07-1.15,2,2,0,0,0-.46-.63,1,1,0,0,0-.71-.2,1.11,1.11,0,0,0-.84.32,1.13,1.13,0,0,0-.34.82,2.33,2.33,0,0,0,.54,1.43,3.62,3.62,0,0,0,1.62,1.18,6.57,6.57,0,0,0,2.67.48,7.82,7.82,0,0,0,2.75-.43,3.36,3.36,0,0,0,1.72-1.31A3.51,3.51,0,0,0,66.16,69.5Zm1.89-2.12a5.89,5.89,0,0,0,1.55,4.3,5.76,5.76,0,0,0,4.32,1.58,6.2,6.2,0,0,0,2.15-.32,4.79,4.79,0,0,0,1.55-.79,3.29,3.29,0,0,0,.92-1,1.77,1.77,0,0,0,.3-.92.79.79,0,0,0-.26-.66,1,1,0,0,0-.73-.27,1,1,0,0,0-.63.21c-.36.34-.65.59-.86.8s-.47.38-.74.56a3.23,3.23,0,0,1-.84.36,3.05,3.05,0,0,1-.94.13A2.71,2.71,0,0,1,72.43,71a2.93,2.93,0,0,1-1-1.13A4,4,0,0,1,71,68.11h5.65a3.68,3.68,0,0,0,1.75-.33c.41-.21.63-.67.63-1.41a4.91,4.91,0,0,0-.61-2.29,4.64,4.64,0,0,0-1.81-1.84,5.48,5.48,0,0,0-2.9-.72,6.28,6.28,0,0,0-2.37.42,4.87,4.87,0,0,0-1.8,1.2A5.22,5.22,0,0,0,68.43,65,7.5,7.5,0,0,0,68.05,67.38Z" transform="translate(-43.18 -15.03)"/><path class="cls-2" d="M133.79,35h-90V26.05a10.21,10.21,0,0,1,10.4-10.37H123.4a10.2,10.2,0,0,1,10.39,10.37Z" transform="translate(-43.18 -15.03)"/><path class="cls-2" d="M43.83,147l43.93-.16,0,5.37a3.47,3.47,0,1,0,0,6.93v8.71H54.23a10.2,10.2,0,0,1-10.4-10.37Z" transform="translate(-43.18 -15.03)"/><path class="cls-1" d="M133.79,53.73V26.05A10.2,10.2,0,0,0,123.4,15.68H54.23a10.21,10.21,0,0,0-10.4,10.37V157.52a10.2,10.2,0,0,0,10.4,10.37H123.4a10.19,10.19,0,0,0,10.39-10.37V127.86" transform="translate(-43.18 -15.03)"/><path class="cls-1" d="M87.78,159.18a3.47,3.47,0,1,0-3.48-3.45A3.47,3.47,0,0,0,87.78,159.18Z" transform="translate(-43.18 -15.03)"/><line class="cls-1" x1="31.54" y1="11.02" x2="59.72" y2="11.02"/><line class="cls-1" x1="0.65" y1="19.94" x2="90.6" y2="19.94"/><polyline class="cls-1" points="0.65 132.01 44.58 131.85 90.6 131.7"/><path class="cls-1" d="M133.79,53.89h1.79a2.71,2.71,0,0,1,2.7,2.68V61.4a29.82,29.82,0,0,1,9.79,4.17l3.48-3.5a2.72,2.72,0,0,1,3.8,0l5.27,5.27a2.72,2.72,0,0,1,0,3.8L157,74.79a29.4,29.4,0,0,1,3.76,9.63h5.38a2.72,2.72,0,0,1,2.72,2.7v7.42a2.72,2.72,0,0,1-2.72,2.71h-5.71a29.31,29.31,0,0,1-4,9.07l4.22,4.2a2.72,2.72,0,0,1,0,3.8l-5.27,5.27a2.7,2.7,0,0,1-3.8,0l-4.37-4.37a29.19,29.19,0,0,1-8.9,3.59v6.28a2.71,2.71,0,0,1-2.7,2.68h-7.44a2.69,2.69,0,0,1-2.68-2.68v-6.28a29,29,0,0,1-8.91-3.59l-4.38,4.37a2.7,2.7,0,0,1-3.8,0l-5.27-5.27a2.72,2.72,0,0,1,0-3.8l4.22-4.2a28.85,28.85,0,0,1-4-9.07H97.6a2.71,2.71,0,0,1-2.68-2.71V87.12a2.7,2.7,0,0,1,2.68-2.7H103a29.64,29.64,0,0,1,3.77-9.63l-3.67-3.65a2.72,2.72,0,0,1,0-3.8l5.27-5.27a2.72,2.72,0,0,1,3.8,0l3.5,3.5a29.28,29.28,0,0,1,9.79-4.17V56.57a2.69,2.69,0,0,1,2.68-2.68Z" transform="translate(-43.18 -15.03)"/><path class="cls-1" d="M133.79,105.61a12.35,12.35,0,0,1-1.93.14,14.92,14.92,0,0,1,0-29.83,12.35,12.35,0,0,1,1.93.13,14.91,14.91,0,0,1,0,29.56Z" transform="translate(-43.18 -15.03)"/><line class="cls-1" x1="13.39" y1="77.12" x2="13.39" y2="108.16"/><line class="cls-1" x1="23.04" y1="89.48" x2="23.04" y2="108.16"/><line class="cls-1" x1="32.7" y1="82.12" x2="32.7" y2="108.16"/><line class="cls-1" x1="42.36" y1="95.85" x2="42.36" y2="108.16"/></svg>