<svg id="Capa_1" data-name="Capa 1" xmlns="http://www.w3.org/2000/svg" viewBox="0 0 140.36 158.41"><defs><style>.cls-1{fill:#222651;}</style></defs><path class="cls-1" d="M86.59,42.27a1.34,1.34,0,0,1-.83-.3,1.28,1.28,0,0,1-.47-1V35.56a1.29,1.29,0,0,1,1.65-1.25,5.91,5.91,0,0,0,1.65.25h22.8a5.87,5.87,0,0,0,1.62-.25,1.3,1.3,0,0,1,1.66,1.25V41a1.31,1.31,0,0,1-1.56,1.27,67.71,67.71,0,0,0-26.27,0A1.07,1.07,0,0,1,86.59,42.27ZM100,38.34a69.24,69.24,0,0,1,12.09,1.06V37.13l-.68,0H88.59l-.7,0V39.4A69.07,69.07,0,0,1,100,38.34Z" transform="translate(-29.79 -20.33)"/><path class="cls-1" d="M47.46,65.24a1.34,1.34,0,0,1-.92-.38l-4.2-4.21a5.45,5.45,0,0,1-1.62-3.91,5.33,5.33,0,0,1,1.63-3.85L47,48.25a5.61,5.61,0,0,1,7.76,0l4.5,4.5a1.29,1.29,0,0,1,.38,1,1.31,1.31,0,0,1-.51,1A69.83,69.83,0,0,0,48.45,64.78a1.33,1.33,0,0,1-.94.46Zm3.39-16a3,3,0,0,0-2.06.84l-4.61,4.65a2.8,2.8,0,0,0-.86,2,2.83,2.83,0,0,0,.86,2.06L47.4,62a72.24,72.24,0,0,1,8.94-8.48l-3.47-3.47A2.8,2.8,0,0,0,50.85,49.25Z" transform="translate(-29.79 -20.33)"/><path class="cls-1" d="M100,178.73a70.2,70.2,0,1,1,70.17-70.18A70.26,70.26,0,0,1,100,178.73ZM100,41a67.59,67.59,0,1,0,67.57,67.6A67.66,67.66,0,0,0,100,41Z" transform="translate(-29.79 -20.33)"/><path class="cls-1" d="M100,168.89a60.35,60.35,0,1,1,60.33-60.34A60.41,60.41,0,0,1,100,168.89Zm0-118.1a57.75,57.75,0,1,0,57.72,57.76A57.8,57.8,0,0,0,100,50.79Z" transform="translate(-29.79 -20.33)"/><path class="cls-1" d="M94.48,106a1.36,1.36,0,0,1-.48-.09,1.3,1.3,0,0,1-.8-1.39l4.47-32a2.34,2.34,0,0,1,4.61-.06l4.48,32.1a1.3,1.3,0,0,1-2.35.93,5.42,5.42,0,0,0-8.86,0A1.31,1.31,0,0,1,94.48,106Zm5.5-5.45a8,8,0,0,1,3.72.9L100,74.73l-3.73,26.7A8,8,0,0,1,100,100.53Z" transform="translate(-29.79 -20.33)"/><path class="cls-1" d="M100,116.55a8,8,0,1,1,8-8A8,8,0,0,1,100,116.55Zm0-13.42a5.41,5.41,0,1,0,5.42,5.42A5.43,5.43,0,0,0,100,103.13Z" transform="translate(-29.79 -20.33)"/><path class="cls-1" d="M111.39,37.16H88.59a7.85,7.85,0,0,1-7.84-7.84V28.18a7.85,7.85,0,0,1,7.84-7.85h22.8a7.84,7.84,0,0,1,7.81,7.85v1.14A7.83,7.83,0,0,1,111.39,37.16ZM88.59,22.93a5.25,5.25,0,0,0-5.24,5.25v1.14a5.25,5.25,0,0,0,5.24,5.24h22.8a5.23,5.23,0,0,0,5.21-5.24V28.18a5.23,5.23,0,0,0-5.21-5.25Z" transform="translate(-29.79 -20.33)"/><path class="cls-1" d="M100,60.94a1.3,1.3,0,0,1-1.3-1.3V54.9a1.3,1.3,0,1,1,2.6,0v4.74A1.3,1.3,0,0,1,100,60.94Z" transform="translate(-29.79 -20.33)"/><path class="cls-1" d="M124.41,67.49a1.4,1.4,0,0,1-.65-.17,1.3,1.3,0,0,1-.47-1.78l2.37-4.12a1.31,1.31,0,0,1,1.78-.47,1.29,1.29,0,0,1,.47,1.77l-2.37,4.12A1.32,1.32,0,0,1,124.41,67.49Z" transform="translate(-29.79 -20.33)"/><path class="cls-1" d="M142.31,85.41a1.3,1.3,0,0,1-.66-2.42l4.12-2.4a1.3,1.3,0,0,1,1.31,2.25L143,85.24A1.3,1.3,0,0,1,142.31,85.41Z" transform="translate(-29.79 -20.33)"/><path class="cls-1" d="M153.6,109.85h-4.71a1.3,1.3,0,1,1,0-2.6h4.71a1.3,1.3,0,1,1,0,2.6Z" transform="translate(-29.79 -20.33)"/><path class="cls-1" d="M146.42,136.67a1.3,1.3,0,0,1-.65-.18l-4.11-2.37a1.3,1.3,0,0,1-.47-1.78,1.29,1.29,0,0,1,1.77-.47l4.11,2.37a1.3,1.3,0,0,1-.65,2.43Z" transform="translate(-29.79 -20.33)"/><path class="cls-1" d="M126.79,156.28a1.32,1.32,0,0,1-1.13-.65l-2.37-4.09a1.3,1.3,0,0,1,2.25-1.3l2.37,4.08a1.31,1.31,0,0,1-1.12,2Z" transform="translate(-29.79 -20.33)"/><path class="cls-1" d="M100,163.48a1.3,1.3,0,0,1-1.3-1.3v-4.74a1.3,1.3,0,1,1,2.6,0v4.74A1.3,1.3,0,0,1,100,163.48Z" transform="translate(-29.79 -20.33)"/><path class="cls-1" d="M73.16,156.28a1.28,1.28,0,0,1-.65-.18,1.3,1.3,0,0,1-.47-1.78l2.37-4.08a1.3,1.3,0,0,1,2.25,1.3l-2.37,4.09A1.33,1.33,0,0,1,73.16,156.28Z" transform="translate(-29.79 -20.33)"/><path class="cls-1" d="M53.53,136.67a1.3,1.3,0,0,1-.66-2.43L57,131.87a1.3,1.3,0,1,1,1.3,2.25l-4.11,2.38A1.4,1.4,0,0,1,53.53,136.67Z" transform="translate(-29.79 -20.33)"/><path class="cls-1" d="M51.09,109.85H46.35a1.3,1.3,0,0,1,0-2.6h4.74a1.3,1.3,0,1,1,0,2.6Z" transform="translate(-29.79 -20.33)"/><path class="cls-1" d="M57.64,85.41a1.26,1.26,0,0,1-.65-.17l-4.12-2.4a1.3,1.3,0,1,1,1.31-2.25L58.3,83a1.3,1.3,0,0,1-.66,2.42Z" transform="translate(-29.79 -20.33)"/><path class="cls-1" d="M75.54,67.49a1.31,1.31,0,0,1-1.13-.65L72,62.72a1.3,1.3,0,0,1,2.26-1.3l2.37,4.12a1.3,1.3,0,0,1-.47,1.78A1.4,1.4,0,0,1,75.54,67.49Z" transform="translate(-29.79 -20.33)"/></svg>