<svg id="Capa_1" data-name="Capa 1" xmlns="http://www.w3.org/2000/svg" viewBox="0 0 190.49 118.01"><defs><style>.cls-1{fill:#222651;}</style></defs><path class="cls-1" d="M178.37,137.31H20.71a1.56,1.56,0,0,1-1.56-1.57V49.05a9.47,9.47,0,0,1,9.45-9.46H170.48a9.47,9.47,0,0,1,9.45,9.46v86.69A1.56,1.56,0,0,1,178.37,137.31ZM22.28,134.18H176.8V49.05a6.33,6.33,0,0,0-6.32-6.33H28.6a6.34,6.34,0,0,0-6.32,6.33Z" transform="translate(-4.3 -39.59)"/><path class="cls-1" d="M170.48,129.42H28.6A1.56,1.56,0,0,1,27,127.86V49.05a1.56,1.56,0,0,1,1.56-1.56H170.48A1.56,1.56,0,0,1,172,49.05v78.81A1.56,1.56,0,0,1,170.48,129.42ZM30.17,126.29H168.91V50.62H30.17Z" transform="translate(-4.3 -39.59)"/><path class="cls-1" d="M183.07,157.6H16A11.74,11.74,0,0,1,4.3,145.88V135.74a1.56,1.56,0,0,1,1.57-1.56H193.22a1.56,1.56,0,0,1,1.57,1.56v10.14A11.74,11.74,0,0,1,183.07,157.6ZM7.43,137.31v8.57A8.6,8.6,0,0,0,16,154.47h167a8.6,8.6,0,0,0,8.59-8.59v-8.57Z" transform="translate(-4.3 -39.59)"/><path class="cls-1" d="M99.53,151.4a5.51,5.51,0,1,1,5.52-5.5A5.51,5.51,0,0,1,99.53,151.4Zm0-7.89a2.38,2.38,0,1,0,2.39,2.39A2.39,2.39,0,0,0,99.53,143.51Z" transform="translate(-4.3 -39.59)"/><path class="cls-1" d="M45.45,100.17a9.75,9.75,0,0,1-3.76-.67,5.55,5.55,0,0,1-2.34-1.71,3.51,3.51,0,0,1-.77-2.09,1.72,1.72,0,0,1,.53-1.26,1.78,1.78,0,0,1,1.31-.52,1.55,1.55,0,0,1,1.1.35,3.74,3.74,0,0,1,.69.91A4,4,0,0,0,43.6,96.7a4.23,4.23,0,0,0,2.23.5,3.25,3.25,0,0,0,1.85-.5,1.31,1.31,0,0,0,.69-1.06,1.43,1.43,0,0,0-.71-1.36,9.09,9.09,0,0,0-2.56-.9,22.15,22.15,0,0,1-3.4-1.09,5.76,5.76,0,0,1-2.13-1.53,3.69,3.69,0,0,1-.82-2.4A4.19,4.19,0,0,1,39.51,86a5.1,5.1,0,0,1,2.19-1.77,8.41,8.41,0,0,1,3.44-.65,10.79,10.79,0,0,1,2.84.34,7,7,0,0,1,2.11.87A4.56,4.56,0,0,1,51.41,86a2.51,2.51,0,0,1,.46,1.4,1.67,1.67,0,0,1-.52,1.26,2,2,0,0,1-1.45.49,1.79,1.79,0,0,1-1.16-.39,7,7,0,0,1-1-1.09,3.38,3.38,0,0,0-1-.88,3.7,3.7,0,0,0-3.26.1,1.16,1.16,0,0,0-.63,1,1,1,0,0,0,.45.86,3.92,3.92,0,0,0,1.36.64c.68.2,1.51.42,2.44.64a13,13,0,0,1,3.08,1.1A5.21,5.21,0,0,1,52,92.7a3.54,3.54,0,0,1,.64,2.06,4.84,4.84,0,0,1-3.31,4.8A10.75,10.75,0,0,1,45.45,100.17Zm-5-5.86a1.39,1.39,0,0,0-1,.41,1.34,1.34,0,0,0-.41,1,3.11,3.11,0,0,0,.69,1.86,5.38,5.38,0,0,0,2.18,1.58,9.39,9.39,0,0,0,3.61.64,10.23,10.23,0,0,0,3.74-.59,4.6,4.6,0,0,0,2.28-1.71,4.68,4.68,0,0,0,.78-2.72,3.13,3.13,0,0,0-.57-1.83A4.89,4.89,0,0,0,50,91.51a12.44,12.44,0,0,0-3-1.07c-.94-.22-1.77-.44-2.46-.64A4.44,4.44,0,0,1,43,89.1a1.42,1.42,0,0,1-.61-1.18,1.56,1.56,0,0,1,.81-1.32,3.44,3.44,0,0,1,1.9-.49,3.55,3.55,0,0,1,1.77.38,3.84,3.84,0,0,1,1.12,1,6.71,6.71,0,0,0,.95,1,1.43,1.43,0,0,0,.92.3,1.69,1.69,0,0,0,1.18-.38,1.29,1.29,0,0,0,.4-1,2.14,2.14,0,0,0-.4-1.19,4.11,4.11,0,0,0-1.2-1.14,6.92,6.92,0,0,0-2-.83A10.91,10.91,0,0,0,45.14,84a8,8,0,0,0-3.28.62,4.66,4.66,0,0,0-2,1.63,3.86,3.86,0,0,0-.69,2.15,3.31,3.31,0,0,0,.73,2.15,5.3,5.3,0,0,0,2,1.42A20.51,20.51,0,0,0,45.19,93a9.42,9.42,0,0,1,2.68.94,1.83,1.83,0,0,1,.89,1.7A1.67,1.67,0,0,1,47.9,97a3.58,3.58,0,0,1-2.07.57,4,4,0,0,1-4-2.22,3.34,3.34,0,0,0-.6-.81A1.21,1.21,0,0,0,40.42,94.31Z" transform="translate(-4.3 -39.59)"/><path class="cls-1" d="M63.18,100.17a8.11,8.11,0,0,1-6.11-2.25,8.31,8.31,0,0,1-2.2-6.07,10,10,0,0,1,.54-3.35A7.44,7.44,0,0,1,57,85.84a6.67,6.67,0,0,1,2.55-1.71,9.28,9.28,0,0,1,3.35-.59,8,8,0,0,1,4.11,1,6.84,6.84,0,0,1,2.57,2.61,7,7,0,0,1,.85,3.29,2.16,2.16,0,0,1-1,2.12,5.46,5.46,0,0,1-2.49.47H59.35a4.76,4.76,0,0,0,.52,2.11,3.44,3.44,0,0,0,3.19,2A4.76,4.76,0,0,0,64.31,97a3.87,3.87,0,0,0,1.1-.5,7.89,7.89,0,0,0,1-.75c.37-.31.77-.68,1.21-1.11a1.8,1.8,0,0,1,2.13.08,1.35,1.35,0,0,1,.45,1.09,2.66,2.66,0,0,1-.45,1.35,5,5,0,0,1-1.33,1.45,7,7,0,0,1-2.19,1.13A9.35,9.35,0,0,1,63.18,100.17Zm-.29-16.24a8.77,8.77,0,0,0-3.21.57,6.37,6.37,0,0,0-2.41,1.6,7.35,7.35,0,0,0-1.49,2.52,9.56,9.56,0,0,0-.51,3.23,8,8,0,0,0,2.08,5.8,7.67,7.67,0,0,0,5.83,2.13,8.87,8.87,0,0,0,2.91-.43,6.58,6.58,0,0,0,2.08-1.07,4.62,4.62,0,0,0,1.23-1.34,2.24,2.24,0,0,0,.4-1.15,1,1,0,0,0-.31-.8,1.22,1.22,0,0,0-.87-.29,1.19,1.19,0,0,0-.75.21c-.43.42-.84.8-1.21,1.12a9,9,0,0,1-1,.78,4.2,4.2,0,0,1-1.21.54,4.71,4.71,0,0,1-1.35.17A4,4,0,0,1,61,97a4.11,4.11,0,0,1-1.49-1.64A5.49,5.49,0,0,1,59,92.86v-.2h8a5.13,5.13,0,0,0,2.31-.43c.51-.26.76-.84.76-1.77a6.51,6.51,0,0,0-.8-3.1,6.4,6.4,0,0,0-2.43-2.47A7.68,7.68,0,0,0,62.89,83.93Zm3.7,6.86H58.93l0-.22a5.36,5.36,0,0,1,1.21-3.16,3.4,3.4,0,0,1,2.6-1.09,3.5,3.5,0,0,1,2.65,1.07,5,5,0,0,1,1.16,3.19Zm-7.22-.39h6.79a4.49,4.49,0,0,0-1-2.74,3.14,3.14,0,0,0-2.37-1,3,3,0,0,0-2.31,1A4.7,4.7,0,0,0,59.37,90.4Z" transform="translate(-4.3 -39.59)"/><path class="cls-1" d="M80.55,100.17a8.83,8.83,0,0,1-3.33-.59,7.69,7.69,0,0,1-2.57-1.72A7.51,7.51,0,0,1,73,95.22a9.49,9.49,0,0,1-.55-3.35A10.24,10.24,0,0,1,73,88.49a7.62,7.62,0,0,1,1.64-2.64,7.11,7.11,0,0,1,2.59-1.69,9.2,9.2,0,0,1,3.32-.59,9.09,9.09,0,0,1,3.36.6,7.25,7.25,0,0,1,4.24,4.34,9.91,9.91,0,0,1,.56,3.36,9.58,9.58,0,0,1-.57,3.35,7.58,7.58,0,0,1-1.65,2.66,7.17,7.17,0,0,1-2.58,1.7A8.83,8.83,0,0,1,80.55,100.17Zm0-16.21a8.64,8.64,0,0,0-3.18.57,6.71,6.71,0,0,0-2.45,1.59,7.15,7.15,0,0,0-1.55,2.51,9.62,9.62,0,0,0-.53,3.24,8.93,8.93,0,0,0,.53,3.21,7,7,0,0,0,1.57,2.51,7.17,7.17,0,0,0,2.43,1.63,9.39,9.39,0,0,0,6.39,0,6.92,6.92,0,0,0,2.45-1.61,7.25,7.25,0,0,0,1.56-2.52,9.78,9.78,0,0,0,0-6.44,7,7,0,0,0-1.55-2.5,7.17,7.17,0,0,0-2.47-1.62A8.65,8.65,0,0,0,80.55,84Zm0,13.25a3.71,3.71,0,0,1-2.19-.66,4.07,4.07,0,0,1-1.43-1.88,8.25,8.25,0,0,1,0-5.63,3.94,3.94,0,0,1,1.45-1.87,3.92,3.92,0,0,1,5.2.79,7.34,7.34,0,0,1,0,7.81A3.66,3.66,0,0,1,80.55,97.21Zm0-10.3a3.27,3.27,0,0,0-1.94.58,3.61,3.61,0,0,0-1.31,1.7,7.09,7.09,0,0,0-.47,2.68,7.22,7.22,0,0,0,.46,2.66,3.72,3.72,0,0,0,1.3,1.7,3.25,3.25,0,0,0,2,.59,3.28,3.28,0,0,0,2.72-1.29,6.95,6.95,0,0,0,0-7.33A3.29,3.29,0,0,0,80.55,86.91Z" transform="translate(-4.3 -39.59)"/><path class="cls-1" d="M140.49,108.93H122.64a1.57,1.57,0,0,1-1.54-1.28A16.62,16.62,0,0,0,116,99a23.15,23.15,0,0,1-7-19.34,23.48,23.48,0,0,1,20.57-20.57,11.84,11.84,0,0,1,3.14,0c.27,0,.52,0,.8,0a23.47,23.47,0,0,1,20.74,20.58A23,23,0,0,1,147.14,99a17,17,0,0,0-5.12,8.64A1.55,1.55,0,0,1,140.49,108.93Zm-16.61-3.13h15.37a21,21,0,0,1,5.72-9A19.9,19.9,0,0,0,151.08,80a20.27,20.27,0,0,0-17.8-17.8,8.43,8.43,0,0,1-.9,0c-.32,0-.66-.05-1-.05a9.09,9.09,0,0,0-1.46.09A20.34,20.34,0,0,0,112.05,80a20,20,0,0,0,6.1,16.74A20.58,20.58,0,0,1,123.88,105.8Z" transform="translate(-4.3 -39.59)"/><path class="cls-1" d="M142.63,112.71H120.5a1.57,1.57,0,0,1,0-3.13h22.13a1.57,1.57,0,1,1,0,3.13Z" transform="translate(-4.3 -39.59)"/><path class="cls-1" d="M142.63,116.56H120.5a1.57,1.57,0,0,1,0-3.13h22.13a1.57,1.57,0,1,1,0,3.13Z" transform="translate(-4.3 -39.59)"/><path class="cls-1" d="M142.63,120.38H120.5a1.57,1.57,0,0,1,0-3.13h22.13a1.57,1.57,0,1,1,0,3.13Z" transform="translate(-4.3 -39.59)"/><path class="cls-1" d="M131.55,109A1.56,1.56,0,0,1,130,107.8l-8.64-17a1.56,1.56,0,0,1,2.79-1.41l6.95,13.7,3.33-13.37a1.57,1.57,0,1,1,3,.76l-4.42,17.31a1.52,1.52,0,0,1-.42.75A1.61,1.61,0,0,1,131.55,109Z" transform="translate(-4.3 -39.59)"/><path class="cls-1" d="M128.83,89.59a4.92,4.92,0,0,1-3.4-1.53c-1.21-1.12-2.36-.79-4.36.32a4.14,4.14,0,0,1-2,.72,1.56,1.56,0,0,1-.2-3.11c.17-.08.39-.21.64-.35,1.6-.89,4.92-2.74,8,.13,1.12,1,1.63.8,3.06-.11a5.7,5.7,0,0,1,2.67-1.11c2.3-.06,5.87,1.63,6.58,2a1.57,1.57,0,0,1-1.4,2.8c-1.44-.73-3.89-1.71-5-1.65a4.23,4.23,0,0,0-1.16.61A6.56,6.56,0,0,1,128.83,89.59Z" transform="translate(-4.3 -39.59)"/><path class="cls-1" d="M133,124H130.2a9.12,9.12,0,0,1-9.12-9.1v-7.56a1.56,1.56,0,0,1,1.56-1.57h17.85a1.56,1.56,0,0,1,1.56,1.57v7.56A9.11,9.11,0,0,1,133,124Zm-8.74-15.1v6a6,6,0,0,0,6,6H133a6,6,0,0,0,6-6v-6Z" transform="translate(-4.3 -39.59)"/><path class="cls-1" d="M131.58,59.24A1.57,1.57,0,0,1,130,57.67V54a1.57,1.57,0,1,1,3.13,0v3.71A1.56,1.56,0,0,1,131.58,59.24Z" transform="translate(-4.3 -39.59)"/><path class="cls-1" d="M144.88,62.8a1.56,1.56,0,0,1-1.35-2.35l1.85-3.21a1.56,1.56,0,0,1,2.71,1.56L146.24,62A1.56,1.56,0,0,1,144.88,62.8Z" transform="translate(-4.3 -39.59)"/><path class="cls-1" d="M154.6,72.54a1.57,1.57,0,0,1-.78-2.92l3.24-1.86a1.56,1.56,0,0,1,1.56,2.71l-3.24,1.86A1.55,1.55,0,0,1,154.6,72.54Z" transform="translate(-4.3 -39.59)"/><path class="cls-1" d="M161.9,85.84h-3.72a1.57,1.57,0,0,1,0-3.13h3.72a1.57,1.57,0,0,1,0,3.13Z" transform="translate(-4.3 -39.59)"/><path class="cls-1" d="M157.83,101a1.54,1.54,0,0,1-.77-.21l-3.24-1.85a1.56,1.56,0,0,1,1.56-2.71l3.23,1.85a1.56,1.56,0,0,1-.78,2.92Z" transform="translate(-4.3 -39.59)"/><path class="cls-1" d="M105.32,101a1.56,1.56,0,0,1-.78-2.92l3.21-1.85a1.57,1.57,0,1,1,1.57,2.71l-3.22,1.85A1.6,1.6,0,0,1,105.32,101Z" transform="translate(-4.3 -39.59)"/><path class="cls-1" d="M105,85.84h-3.72a1.57,1.57,0,0,1,0-3.13H105a1.57,1.57,0,1,1,0,3.13Z" transform="translate(-4.3 -39.59)"/><path class="cls-1" d="M108.53,72.54a1.6,1.6,0,0,1-.78-.21l-3.21-1.86a1.56,1.56,0,1,1,1.56-2.71l3.22,1.86a1.57,1.57,0,0,1-.79,2.92Z" transform="translate(-4.3 -39.59)"/><path class="cls-1" d="M118.28,62.8a1.56,1.56,0,0,1-1.36-.79l-1.86-3.21a1.56,1.56,0,0,1,2.71-1.56l1.86,3.21a1.58,1.58,0,0,1-.57,2.14A1.6,1.6,0,0,1,118.28,62.8Z" transform="translate(-4.3 -39.59)"/></svg>