<svg id="Capa_1" data-name="Capa 1" xmlns="http://www.w3.org/2000/svg" viewBox="0 0 176 166.66"><defs><style>.cls-1{fill:#222651;}</style></defs><path class="cls-1" d="M105.12,183A83.52,83.52,0,0,1,36.9,147.53,1.44,1.44,0,0,1,38,145.26a123.35,123.35,0,0,0,13.29-2.08c3.1-.62,6.53-1.42,10.49-2.44,23.85-6.13,54-17.37,84.8-31.65,4.33-2,8.58-4,12.77-6a1.45,1.45,0,0,1,1.92.65L167,115a1.86,1.86,0,0,0,3.24,0l13.69-27.86a1.8,1.8,0,0,0-1.31-2.57L152,79a1.86,1.86,0,0,0-1.87.85,1.74,1.74,0,0,0-.07,1.74l6,11.85a1.48,1.48,0,0,1,.08,1.11,1.46,1.46,0,0,1-.74.84c-3.94,1.94-8.13,3.93-12.45,5.91-28.69,13.27-57,24-79.71,30.18-6.69,1.79-12.48,3.12-17.21,4A83.21,83.21,0,0,1,31.49,137a1.43,1.43,0,0,1-1.3-.81c-.91-1.87-1.78-3.84-2.67-6a1.45,1.45,0,0,1,.24-1.49,85.92,85.92,0,0,1,10.66-10.06c-.86-3-1.61-6.08-2.23-9.23A130.48,130.48,0,0,0,26.06,118a1.4,1.4,0,0,1-1.42.34,1.43,1.43,0,0,1-1-1.07A83.36,83.36,0,1,1,105.12,183Zm-64.4-35.14A80.47,80.47,0,0,0,185.14,91.13l-12.36,25.16a4.7,4.7,0,0,1-8.42,0l-5.08-10.08c-3.79,1.82-7.64,3.65-11.53,5.45-31,14.35-61.29,25.65-85.3,31.83-4,1-7.49,1.84-10.63,2.48C47.83,146.84,44.1,147.46,40.72,147.87Zm-10.18-18c.62,1.48,1.23,2.87,1.86,4.19a83,83,0,0,0,13.12-1.5c4.65-.82,10.36-2.13,17-3.9,22.55-6.15,50.7-16.81,79.25-30,3.82-1.76,7.54-3.52,11.08-5.25l-5.31-10.54a4.72,4.72,0,0,1,5-6.74l30.55,5.59.5.13A80.46,80.46,0,0,0,26,114.13c2.93-2.67,6.4-5.51,10.33-8.48a1.41,1.41,0,0,1,1.4-.19,1.45,1.45,0,0,1,.9,1.09,106.21,106.21,0,0,0,2.86,12.16,1.47,1.47,0,0,1-.48,1.54A87,87,0,0,0,30.54,129.89Z" transform="translate(-12.49 -16.35)"/><path class="cls-1" d="M105.12,183c-16.59,0-32-15.9-40.3-41.5a1.4,1.4,0,0,1,.1-1.13,1.47,1.47,0,0,1,.89-.71c23.12-6.34,51.79-17.2,80.72-30.58l1-.47,1.8-.83a1.44,1.44,0,0,1,2.06,1.4C148.77,151.27,128.86,183,105.12,183ZM68,142.05c8,23.53,22.09,38.07,37.08,38.07,21.75,0,40.11-29.36,43.24-68.69l-.62.28C119.28,124.88,91.05,135.62,68,142.05Zm-4.85-10.63a1.43,1.43,0,0,1-1.41-1.13,142.94,142.94,0,0,1-3.23-30.61c0-46,20.89-83.33,46.57-83.33,21.36,0,39.93,25.77,45.15,62.68a1.42,1.42,0,0,1-.16.88,1.86,1.86,0,0,0,0,1.69l.55,1.07a1.39,1.39,0,0,1,.15.5c.49,4.44.78,8.85.84,13.09a1.43,1.43,0,0,1-.83,1.33l-5.22,2.46L143,101.28c-28.41,13.15-56.6,23.83-79.38,30.09A1.31,1.31,0,0,1,63.19,131.42ZM105.12,19.24C81,19.24,61.44,55.32,61.44,99.68a140.41,140.41,0,0,0,2.85,28.5c22.37-6.27,49.8-16.72,77.45-29.51l2.63-1.24,4.37-2.06c-.08-3.77-.35-7.68-.78-11.62l-.44-.86a4.76,4.76,0,0,1-.17-3.87C142.26,43.8,124.92,19.24,105.12,19.24Z" transform="translate(-12.49 -16.35)"/><path class="cls-1" d="M105.12,146.18a140.38,140.38,0,0,1-36.21-4.58,1.45,1.45,0,0,1,0-2.79c22.39-6.37,50-16.93,77.64-29.72,4.33-2,8.58-4,12.77-6a1.45,1.45,0,0,1,1.92.65L167,115a1.86,1.86,0,0,0,3.24,0l13.15-26.76a1.38,1.38,0,0,1,1.32-.81,1.44,1.44,0,0,1,1.29.85,27.54,27.54,0,0,1,2.53,11.39C188.48,125.32,151.08,146.18,105.12,146.18Zm-30.27-6.11a139.12,139.12,0,0,0,30.27,3.21c44.37,0,80.47-19.56,80.47-43.6a23.7,23.7,0,0,0-1.12-7.18l-11.69,23.79a4.7,4.7,0,0,1-8.42,0l-5.08-10.08c-3.79,1.82-7.64,3.65-11.53,5.45C122,123.6,96.38,133.57,74.85,140.07Zm-24.58-5.48a1.43,1.43,0,0,1-.64-.15,68.48,68.48,0,0,1-15.32-10.18,1.42,1.42,0,0,1-.47-1.08,1.46,1.46,0,0,1,.49-1.08c1.21-1.07,2.58-2.24,4.09-3.49-.86-3-1.61-6.08-2.23-9.23-2.51,2-5,4-7.48,6.2a1.44,1.44,0,0,1-2.18-.31,29.11,29.11,0,0,1-4.75-15.59c0-25.65,37.39-46.51,83.34-46.51,34.06,0,64.35,11.31,77.15,28.8a1.45,1.45,0,0,1-1.42,2.28L152,79a1.86,1.86,0,0,0-1.87.85,1.74,1.74,0,0,0-.07,1.74l6,11.85a1.48,1.48,0,0,1,.08,1.11,1.46,1.46,0,0,1-.74.84c-3.94,1.94-8.13,3.93-12.45,5.91-28.69,13.27-57,24-79.71,30.18-4.46,1.2-8.71,2.23-12.66,3.09Zm-12.79-11.4a66.52,66.52,0,0,0,13,8.43c3.77-.82,7.81-1.81,12-2.94,22.55-6.15,50.7-16.81,79.25-30,3.82-1.76,7.54-3.52,11.08-5.25l-5.31-10.54a4.72,4.72,0,0,1,5-6.74l25,4.56c-13.44-15.07-41.25-24.63-72.41-24.63-44.36,0-80.45,19.56-80.45,43.61a25.74,25.74,0,0,0,3.44,12.59c2.73-2.35,5.42-4.52,8.2-6.62a1.41,1.41,0,0,1,1.4-.19,1.45,1.45,0,0,1,.9,1.09,106.21,106.21,0,0,0,2.86,12.16,1.46,1.46,0,0,1-.48,1.54C39.72,121.28,38.55,122.27,37.48,123.19Z" transform="translate(-12.49 -16.35)"/><path class="cls-1" d="M187,101.12h-7.7a1.45,1.45,0,1,1,0-2.89H187a1.45,1.45,0,0,1,0,2.89Zm-44,0H23.23a1.45,1.45,0,1,1,0-2.89H143a1.45,1.45,0,1,1,0,2.89Z" transform="translate(-12.49 -16.35)"/><path class="cls-1" d="M105.12,183a1.45,1.45,0,0,1-1.45-1.45V128.15a1.45,1.45,0,1,1,2.89,0v53.41A1.45,1.45,0,0,1,105.12,183Zm0-65.7a1.45,1.45,0,0,1-1.45-1.45V17.79a1.45,1.45,0,0,1,2.89,0v98.07A1.45,1.45,0,0,1,105.12,117.31Z" transform="translate(-12.49 -16.35)"/><path class="cls-1" d="M33.09,148.48H31.36c-9.28,0-15.26-2.76-17.77-8.2-4-8.65,3.86-17.34,6.44-20.19a116.5,116.5,0,0,1,16.28-14.44,1.45,1.45,0,0,1,2.3.9,106.21,106.21,0,0,0,2.86,12.16,1.46,1.46,0,0,1-.48,1.54c-7.69,6.22-11.13,10.2-12.67,12.44a.78.78,0,0,0-.11.82.86.86,0,0,0,.72.49c.7.06,1.54.09,2.5.09a82.4,82.4,0,0,0,14.09-1.51c4.65-.82,10.36-2.13,17-3.9,22.55-6.15,50.7-16.81,79.25-30,3.82-1.76,7.54-3.52,11.08-5.25l-5.31-10.54a4.72,4.72,0,0,1,5-6.74l30.55,5.59a4.72,4.72,0,0,1,3.37,2.55,4.6,4.6,0,0,1,0,4.15l-13.69,27.86a4.7,4.7,0,0,1-8.42,0l-5.08-10.08c-3.79,1.82-7.64,3.65-11.53,5.45-31,14.35-61.29,25.65-85.3,31.83-4,1-7.49,1.84-10.63,2.48a112.06,112.06,0,0,1-18.7,2.46Zm3.1-39.09a106.39,106.39,0,0,0-14,12.63c-2.27,2.51-9.15,10.14-6,17,2,4.32,7.08,6.52,15.14,6.52h1.71a108.32,108.32,0,0,0,18.18-2.41c3.09-.62,6.52-1.42,10.48-2.44,23.85-6.13,54-17.37,84.8-31.65,4.33-2,8.58-4,12.77-6a1.45,1.45,0,0,1,1.92.65L167,115a1.86,1.86,0,0,0,3.24,0l13.69-27.86a1.8,1.8,0,0,0-1.31-2.57L152,79a1.86,1.86,0,0,0-1.87.85,1.74,1.74,0,0,0-.07,1.74l6,11.85a1.48,1.48,0,0,1,.08,1.11,1.46,1.46,0,0,1-.74.84c-3.94,1.94-8.13,3.93-12.45,5.91-28.69,13.27-57,24-79.71,30.18-6.69,1.79-12.48,3.12-17.21,4A86.18,86.18,0,0,1,31.43,137c-1.06,0-2,0-2.75-.1a3.73,3.73,0,0,1-3.1-2.18A3.63,3.63,0,0,1,26,131c1.57-2.3,5-6.32,12.46-12.42C37.56,115.62,36.81,112.53,36.19,109.39Z" transform="translate(-12.49 -16.35)"/></svg>