<svg id="Capa_1" data-name="Capa 1" xmlns="http://www.w3.org/2000/svg" viewBox="0 0 154.67 154.94"><defs><style>.cls-1{fill:#222651;}</style></defs><path class="cls-1" d="M108.9,125,73.73,89.83a1.49,1.49,0,0,1,0-2.09L102.46,59a94.37,94.37,0,0,1,51.2-26.49l5.28-.87c.5,0,.84,0,1.16,0a6.89,6.89,0,0,1,6.71,6.75c0,.26,0,.6,0,.93L166.23,45A95.1,95.1,0,0,1,140,96l-29,29A1.47,1.47,0,0,1,108.9,125Zm-32-36.21L110,121.87l28-28A92.06,92.06,0,0,0,163.3,44.58l.56-5.47c0-.15,0-.41,0-.66a3.83,3.83,0,0,0-3.8-3.86q-.44,0-.81,0l-5.1.85a91.4,91.4,0,0,0-49.6,25.67Z" transform="translate(-12.44 -31.63)"/><path class="cls-1" d="M111.84,139.66l-8.8-8.79a1.48,1.48,0,0,1,0-2.1l17.58-17.57a1.48,1.48,0,0,1,2.52,1v17.58a1.48,1.48,0,0,1-.43,1.05l-8.79,8.79A1.47,1.47,0,0,1,111.84,139.66Zm-5.66-9.84,6.7,6.7,7.32-7.31v-13.4Z" transform="translate(-12.44 -31.63)"/><path class="cls-1" d="M82.56,139.69l0,0L59.08,116.21a1.47,1.47,0,0,1,0-2.09,16.2,16.2,0,0,1,7.44-4.49l4.84-1.72a1.48,1.48,0,0,1,1.54.35l17.58,17.58a1.47,1.47,0,0,1,.35,1.53l-1.76,5a18.71,18.71,0,0,1-4.19,7,1.39,1.39,0,0,1-.23.31A1.47,1.47,0,0,1,82.56,139.69ZM62.25,115.2l21.27,21.27a16,16,0,0,0,2.75-5.07l1.46-4.13L71.47,111l-4.11,1.45A13,13,0,0,0,62.25,115.2Z" transform="translate(-12.44 -31.63)"/><path class="cls-1" d="M67.87,95.7l-8.78-8.79a1.47,1.47,0,0,1,0-2.09L67.88,76a1.48,1.48,0,0,1,1.05-.43H86.5a1.48,1.48,0,0,1,1,2.53L70,95.7A1.49,1.49,0,0,1,67.87,95.7Zm-5.64-9.83,6.69,6.69,14-14H69.54Z" transform="translate(-12.44 -31.63)"/><path class="cls-1" d="M107.29,91.46a16.19,16.19,0,1,1,11.44,4.68A16.07,16.07,0,0,1,107.29,91.46ZM128.1,70.64A13.24,13.24,0,1,0,131.91,80,13.13,13.13,0,0,0,128.1,70.64ZM111.43,87.31a10.52,10.52,0,1,1,7.3,3A10.22,10.22,0,0,1,111.43,87.31ZM124,74.78a7.36,7.36,0,0,0-5.22-2.1,7.32,7.32,0,1,0,0,14.63A7.14,7.14,0,0,0,126.05,80,7.29,7.29,0,0,0,124,74.78Z" transform="translate(-12.44 -31.63)"/><path class="cls-1" d="M95.14,134.67,64.06,103.6a4.34,4.34,0,0,1,0-6.19l9.67-9.67a1.49,1.49,0,0,1,2.09,0L111,122.91a1.47,1.47,0,0,1,0,2.09l-9.67,9.67A4.26,4.26,0,0,1,95.14,134.67ZM74.78,90.88l-8.63,8.63a1.35,1.35,0,0,0,0,2l31.08,31.07a1.34,1.34,0,0,0,2,0l8.63-8.62Z" transform="translate(-12.44 -31.63)"/><path class="cls-1" d="M155.21,71.65,127.08,43.53a1.48,1.48,0,0,1-.41-1.28,1.44,1.44,0,0,1,.8-1.08,89.71,89.71,0,0,1,26.21-8.64l5.56-.89h1.06a7,7,0,0,1,6.81,7.05v.9l-.89,5.49a100.68,100.68,0,0,1-8.65,26.2,1.46,1.46,0,0,1-2.36.38ZM130.64,42.9l25.19,25.2a99.41,99.41,0,0,0,7.48-23.55l.84-5.7c0-2.6-1.7-4.26-3.81-4.27-.17,0-.41,0-.64,0h-.12l-5.43.87A86.13,86.13,0,0,0,130.64,42.9Z" transform="translate(-12.44 -31.63)"/><path class="cls-1" d="M36.66,147.19a1.49,1.49,0,0,1,0-2.08l22-22.53a1.48,1.48,0,0,1,2.09,0h0a1.49,1.49,0,0,1,0,2.08l-22,22.53a1.48,1.48,0,0,1-2.09,0Z" transform="translate(-12.44 -31.63)"/><path class="cls-1" d="M12.87,135.84a1.66,1.66,0,0,1-.22-.3,1.47,1.47,0,0,1,.52-2l39.4-23.28a1.48,1.48,0,0,1,1.5,2.55l-39.4,23.27A1.49,1.49,0,0,1,12.87,135.84Z" transform="translate(-12.44 -31.63)"/><path class="cls-1" d="M63.17,186.14a1.49,1.49,0,0,1-.22-1.8L86.24,145a1.48,1.48,0,1,1,2.54,1.51L65.49,185.84a1.47,1.47,0,0,1-2,.52A1.66,1.66,0,0,1,63.17,186.14Z" transform="translate(-12.44 -31.63)"/><path class="cls-1" d="M43.73,154.26a1.48,1.48,0,0,1,0-2.08l22-22.54a1.48,1.48,0,0,1,2.09,0v0a1.47,1.47,0,0,1,0,2.07l-22,22.55a1.49,1.49,0,0,1-2.1,0Z" transform="translate(-12.44 -31.63)"/><path class="cls-1" d="M50.79,161.32a1.48,1.48,0,0,1,0-2.08l22-22.53a1.48,1.48,0,0,1,2.1,0h0a1.48,1.48,0,0,1,0,2.08l-22,22.53a1.47,1.47,0,0,1-2.09,0Z" transform="translate(-12.44 -31.63)"/></svg>