<svg id="Capa_1" data-name="Capa 1" xmlns="http://www.w3.org/2000/svg" viewBox="0 0 82.46 138.66"><defs><style>.cls-1,.cls-2{fill:none;stroke:#222651;}.cls-1{stroke-linecap:round;stroke-linejoin:round;stroke-width:1.3px;}.cls-2{stroke-miterlimit:10;stroke-width:0.16px;}</style></defs><path class="cls-1" d="M96.27,117.75H116V122H96.27v-4.26Z" transform="translate(-65.32 -23.86)"/><path class="cls-2" d="M147.13,152.52a9.18,9.18,0,0,1-9.36,9.35H106.56v-7.31a3.12,3.12,0,1,0,0-6.23v-5.26h40.57Z" transform="translate(-65.32 -23.86)"/><polygon class="cls-1" points="40.84 89.72 50.72 89.72 50.72 93.89 30.95 93.89 30.95 89.72 40.83 89.72 40.84 89.72"/><path class="cls-1" d="M104.61,130.32a8.33,8.33,0,0,1-7.12-4h17.32a8.33,8.33,0,0,1-7.13,4Z" transform="translate(-65.32 -23.86)"/><path class="cls-1" d="M96.27,122H116a8.14,8.14,0,0,1-1.23,4.27H97.49A8.22,8.22,0,0,1,96.27,122Z" transform="translate(-65.32 -23.86)"/><path class="cls-1" d="M129.52,83a24.08,24.08,0,0,1-7.27,20A20.42,20.42,0,0,0,116,113.58H96.27a20.6,20.6,0,0,0-6.2-10.53,23.9,23.9,0,0,1-7.29-20A24.3,24.3,0,0,1,104,61.76a12.63,12.63,0,0,1,2.12-.12c.75,0,1.35.12,2.09.12A24.16,24.16,0,0,1,129.52,83Z" transform="translate(-65.32 -23.86)"/><path class="cls-1" d="M122.25,103.05a23.74,23.74,0,0,0,7.35-15.6l6.07.5h11.46v55.12H66V88H76.64l6-.5a23.72,23.72,0,0,0,7.38,15.6,20.6,20.6,0,0,1,6.2,10.53V122a8.22,8.22,0,0,0,1.22,4.27,8.33,8.33,0,0,0,7.12,4h3.07a8.33,8.33,0,0,0,7.13-4A8.14,8.14,0,0,0,116,122v-8.43A20.42,20.42,0,0,1,122.25,103.05Z" transform="translate(-65.32 -23.86)"/><path class="cls-2" d="M66,143.07h40.59v5.26a3.12,3.12,0,1,0,0,6.23v7.31H75.35A9.19,9.19,0,0,1,66,152.52Z" transform="translate(-65.32 -23.86)"/><path class="cls-2" d="M137.77,24.51a9.2,9.2,0,0,1,9.36,9.36v8.05H66V33.87a9.2,9.2,0,0,1,9.38-9.36Z" transform="translate(-65.32 -23.86)"/><path class="cls-1" d="M129.6,87.45a23.51,23.51,0,0,0-.08-4.43,24.16,24.16,0,0,0-21.27-21.26c-.74,0-1.34-.12-2.09-.12a12.63,12.63,0,0,0-2.12.12A24.3,24.3,0,0,0,82.78,83a23.55,23.55,0,0,0-.09,4.43l-6,.5H66v-46h81.16V88H135.67Z" transform="translate(-65.32 -23.86)"/><path class="cls-1" d="M147.13,41.92V33.87a9.2,9.2,0,0,0-9.36-9.36H75.35A9.2,9.2,0,0,0,66,33.87V152.52a9.19,9.19,0,0,0,9.38,9.35h62.42a9.18,9.18,0,0,0,9.36-9.35V41.92Z" transform="translate(-65.32 -23.86)"/><path class="cls-1" d="M106.56,154.56a3.12,3.12,0,1,0-3.12-3.11A3.12,3.12,0,0,0,106.56,154.56Z" transform="translate(-65.32 -23.86)"/><line class="cls-1" x1="28.52" y1="10.03" x2="53.96" y2="10.01"/><line class="cls-1" x1="0.65" y1="18.06" x2="81.81" y2="18.06"/><polyline class="cls-1" points="0.65 119.21 41.24 119.21 81.81 119.21"/><path class="cls-1" d="M116,113.58a20.42,20.42,0,0,1,6.21-10.53,24.08,24.08,0,0,0,7.27-20,24.16,24.16,0,0,0-21.27-21.26c-.74,0-1.34-.12-2.09-.12a12.63,12.63,0,0,0-2.12.12A24.3,24.3,0,0,0,82.78,83a23.9,23.9,0,0,0,7.29,20,20.6,20.6,0,0,1,6.2,10.53" transform="translate(-65.32 -23.86)"/><polyline class="cls-1" points="28.56 93.89 30.95 93.89 50.72 93.89 53.11 93.89"/><polyline class="cls-1" points="28.56 98.15 30.95 98.15 50.72 98.15 53.11 98.15"/><polyline class="cls-1" points="28.56 102.42 32.17 102.42 49.49 102.42 53.11 102.42"/><polyline class="cls-1" points="45.72 70.49 41.07 89.08 40.83 89.7"/><polyline class="cls-1" points="31.09 70.49 40.83 89.7 40.83 89.72"/><path class="cls-1" d="M92.32,91.58c1.12,0,4.83-3.83,8.21-.68s5.51-.81,7.65-.93,6.41,2,6.41,2" transform="translate(-65.32 -23.86)"/><path class="cls-1" d="M96.27,113.58H116V122a8.14,8.14,0,0,1-1.23,4.27,8.33,8.33,0,0,1-7.13,4h-3.07a8.33,8.33,0,0,1-7.12-4A8.22,8.22,0,0,1,96.27,122v-8.43Z" transform="translate(-65.32 -23.86)"/><line class="cls-1" x1="40.84" y1="30.45" x2="40.84" y2="34.57"/><line class="cls-1" x1="57.65" y1="34.96" x2="55.58" y2="38.53"/><line class="cls-1" x1="69.97" y1="47.27" x2="66.4" y2="49.32"/><line class="cls-1" x1="74.48" y1="64.09" x2="70.35" y2="64.09"/><line class="cls-1" x1="69.97" y1="80.91" x2="66.4" y2="78.84"/><line class="cls-1" x1="11.7" y1="80.91" x2="15.28" y2="78.84"/><line class="cls-1" x1="7.2" y1="64.09" x2="11.32" y2="64.09"/><line class="cls-1" x1="11.7" y1="47.27" x2="15.28" y2="49.32"/><line class="cls-1" x1="24.02" y1="34.96" x2="26.07" y2="38.53"/></svg>