<svg id="Capa_1" data-name="Capa 1" xmlns="http://www.w3.org/2000/svg" viewBox="0 0 97.61 97.61"><defs><style>.cls-1{fill:#fff;}</style></defs><path class="cls-1" d="M50.44,98.75A48.81,48.81,0,1,1,99.25,49.94,48.86,48.86,0,0,1,50.44,98.75Zm0-96.11a47.31,47.31,0,1,0,47.31,47.3A47.36,47.36,0,0,0,50.44,2.64Z" transform="translate(-1.64 -1.14)"/><path class="cls-1" d="M24.84,66a29.74,29.74,0,0,0,16.1,4.72c19.51,0,30.53-16.47,29.87-31.25a21.35,21.35,0,0,0,5.24-5.44,20.78,20.78,0,0,1-6,1.65,10.45,10.45,0,0,0,4.62-5.81A20.89,20.89,0,0,1,68,32.45,10.52,10.52,0,0,0,50.06,42a29.81,29.81,0,0,1-21.65-11,10.51,10.51,0,0,0,3.25,14,10.45,10.45,0,0,1-4.76-1.32,10.52,10.52,0,0,0,8.42,10.44,10.61,10.61,0,0,1-4.74.18,10.51,10.51,0,0,0,9.81,7.29A21.11,21.11,0,0,1,24.84,66Z" transform="translate(-1.64 -1.14)"/></svg>